<svg width="21" height="52" viewBox="0 0 21 52" fill="none" xmlns="http://www.w3.org/2000/svg">
<path d="M10.7 52H7.7V55H10.7V52ZM10.7 12.7H13.7V6.25918L8.76964 10.4035L10.7 12.7ZM5.525 17.05L3.15975 18.8954L5.07366 21.3485L7.45536 19.3465L5.525 17.05ZM0.2 10.225L-1.77445 7.96634L-3.91047 9.83359L-2.16525 12.0704L0.2 10.225ZM11.525 0.324999V-2.675H10.3986L9.55055 -1.93366L11.525 0.324999ZM20.225 0.324999H23.225V-2.675H20.225V0.324999ZM20.225 52V55H23.225V52H20.225ZM13.7 52V12.7H7.7V52H13.7ZM8.76964 10.4035L3.59464 14.7535L7.45536 19.3465L12.6304 14.9965L8.76964 10.4035ZM7.89026 15.2046L2.56526 8.37958L-2.16525 12.0704L3.15975 18.8954L7.89026 15.2046ZM2.17445 12.4837L13.4995 2.58366L9.55055 -1.93366L-1.77445 7.96634L2.17445 12.4837ZM11.525 3.325H20.225V-2.675H11.525V3.325ZM17.225 0.324999V52H23.225V0.324999H17.225ZM20.225 49H10.7V55H20.225V49Z" fill="#FEA726"/>
</svg>
