<svg width="171" height="36" viewBox="0 0 171 36" fill="none" xmlns="http://www.w3.org/2000/svg">
<g clip-path="url(#clip0_210_503)">
<path d="M5.63521 35.851C3.65785 35.851 2.22431 35.4861 1.33459 34.7564C0.444866 34.0268 0 32.9478 0 31.5196C9.82974e-05 30.8836 0.0658498 30.2493 0.196189 29.6269L5.83398 -0.0112305H9.93583L4.49681 29.0784C4.40718 29.418 4.35779 29.767 4.34967 30.1183C4.34967 30.8801 4.58974 31.3636 5.0673 31.5612C5.54486 31.7588 6.40963 31.894 7.66161 31.959L7.06789 35.8432L5.63521 35.851Z" fill="white"/>
<path d="M17.1219 10.9055L13.8099 28.2335C13.7428 28.6 13.6938 28.9146 13.6602 29.1798C13.6283 29.4272 13.6119 29.6765 13.6112 29.926C13.6112 30.7545 13.7764 31.2692 14.1068 31.4703C14.7013 31.7576 15.3331 31.9589 15.9835 32.0682L15.1936 35.851H14.6489C12.7714 35.851 11.3791 35.494 10.4722 34.7799C9.56525 34.0658 9.11179 32.8794 9.11179 31.2207C9.11823 30.8707 9.15974 30.5223 9.2357 30.1807C9.3183 29.783 9.39316 29.4008 9.45769 29.0342L12.9194 10.9107L17.1219 10.9055ZM18.8979 3.48559C18.7294 4.18835 18.3401 4.81752 17.7879 5.27948C17.2652 5.75499 16.5872 6.02052 15.8828 6.02563C15.3454 6.02563 14.83 5.81061 14.4499 5.42787C14.0699 5.04513 13.8564 4.52603 13.8564 3.98475C13.8577 3.59328 13.9395 3.20633 14.0968 2.84834C14.2541 2.49035 14.4834 2.1691 14.7702 1.90488C15.0368 1.62307 15.3571 1.39837 15.7119 1.24424C16.0668 1.09012 16.4489 1.00974 16.8354 1.00794C17.1159 0.997038 17.3959 1.04219 17.6591 1.1408C17.9222 1.23942 18.1634 1.38954 18.3687 1.5825C18.5645 1.77169 18.7185 2.00025 18.8208 2.25332C18.9231 2.5064 18.9713 2.77832 18.9624 3.05141C18.9626 3.19857 18.9408 3.34492 18.8979 3.48559Z" fill="white"/>
<path d="M23.3123 35.851C21.3349 35.851 19.9014 35.4861 19.0117 34.7564C18.122 34.0268 17.6771 32.9478 17.6771 31.5196C17.6768 30.8834 17.7434 30.249 17.8759 29.6269L23.5111 -0.0112305H27.6129L22.1765 29.0784C22.0849 29.4176 22.0346 29.7668 22.0268 30.1183C22.0268 30.8801 22.2668 31.3636 22.7444 31.5612C23.222 31.7588 24.0867 31.894 25.3387 31.959L24.7476 35.8432L23.3123 35.851Z" fill="white"/>
<path d="M37.4461 35.901C36.5581 35.901 35.6606 35.8603 34.7537 35.7788C33.8342 35.694 32.9238 35.5287 32.0329 35.2848C31.0935 35.0249 30.1827 34.6695 29.3147 34.2241C28.329 33.7118 27.4078 33.0825 26.5706 32.3496L29.9807 27.8363C31.0489 28.7818 32.2932 29.5038 33.6411 29.9604C34.8407 30.3393 36.0907 30.5322 37.348 30.5323C38.3094 30.5698 39.2639 30.3547 40.1178 29.9084C40.8406 29.4924 41.2046 28.9178 41.2046 28.1847C41.2134 27.9078 41.1575 27.6328 41.0413 27.3817C40.9252 27.1306 40.7521 26.9105 40.536 26.7392C40.092 26.3717 39.3099 26.0883 38.1895 25.889C37.0692 25.6897 35.9067 25.4652 34.702 25.2157C33.5626 24.9877 32.4578 24.6101 31.4159 24.0925C30.4556 23.6178 29.6239 22.9157 28.992 22.0465C28.3673 21.1798 28.0541 20.0316 28.0523 18.6017C28.0273 17.4131 28.2998 16.2374 28.8448 15.1829C29.3476 14.2253 30.0525 13.3903 30.91 12.7364C31.7958 12.0729 32.7925 11.5745 33.8528 11.2649C34.9673 10.9282 36.125 10.7591 37.2886 10.7631C39.0652 10.744 40.8386 10.9183 42.5779 11.2831C44.2943 11.696 45.8986 12.4861 47.2761 13.597L44.31 18.3287C43.2182 17.5389 41.9834 16.9719 40.6754 16.6596C39.5951 16.42 38.4929 16.2945 37.3867 16.2852C36.2999 16.2852 35.4997 16.5036 34.9886 16.9326C34.7547 17.1056 34.5633 17.3303 34.4291 17.5895C34.2948 17.8486 34.2213 18.1353 34.2142 18.4275C34.2142 19.0584 34.5446 19.5064 35.2054 19.7716C36.0145 20.0806 36.8501 20.3138 37.7016 20.4683L40.9568 21.1209C42.0822 21.3407 43.1723 21.7151 44.1965 22.2336C45.1862 22.7359 46.0421 23.4696 46.6927 24.3733C47.3501 25.2885 47.6796 26.5251 47.6814 28.0833C47.7084 29.2624 47.4271 30.428 46.8656 31.4631C46.3142 32.4333 45.5539 33.2666 44.6405 33.9017C43.6492 34.5905 42.5444 35.0966 41.3776 35.3966C40.0944 35.736 38.7728 35.9055 37.4461 35.901Z" fill="#4D342E"/>
<path d="M64.3314 35.6542V20.4659C64.3314 19.0794 64.0018 18.1088 63.3427 17.5541C62.7228 17.0203 61.9331 16.7288 61.1175 16.7326C60.2536 16.7528 59.4003 16.9289 58.5981 17.2525C57.4761 17.7028 56.3999 18.2609 55.3842 18.919V35.6542H49.114V0H55.3945V13.2592C57.1723 12.1309 58.6712 11.4254 59.8913 11.1429C60.9114 10.8875 61.9563 10.7454 63.0071 10.7191C65.7778 10.7191 67.7569 11.5407 68.9443 13.1838C70.1318 14.8269 70.7255 16.9934 70.7255 19.6834V35.6542H64.3314Z" fill="#4D342E"/>
<path d="M72.0286 4.38191C72.0196 3.90999 72.1066 3.4412 72.2841 3.00438C72.4617 2.56756 72.7261 2.17194 73.0611 1.84187C73.3834 1.51085 73.768 1.24788 74.1924 1.06837C74.6168 0.888852 75.0725 0.796387 75.5328 0.796387C75.9932 0.796387 76.4489 0.888852 76.8733 1.06837C77.2977 1.24788 77.6823 1.51085 78.0045 1.84187C78.3396 2.17194 78.604 2.56756 78.7816 3.00438C78.9592 3.4412 79.0461 3.90999 79.0371 4.38191C79.0473 4.85015 78.9608 5.31541 78.7831 5.74819C78.6053 6.18098 78.3402 6.57183 78.0045 6.89596C77.3461 7.55057 76.4581 7.91761 75.5328 7.91761C74.6076 7.91761 73.7196 7.55057 73.0611 6.89596C72.7255 6.57183 72.4603 6.18098 72.2826 5.74819C72.1048 5.31541 72.0183 4.85015 72.0286 4.38191ZM72.4235 35.6528V11.0531H78.7015V35.6528H72.4235Z" fill="#4D342E"/>
<path d="M80.7018 35.6542V0H86.9823V18.3263H89.0087C89.8399 18.362 90.6614 18.1347 91.3578 17.6763C91.967 17.2482 92.5186 16.535 93.0125 15.5367L95.2867 10.9557H102.406L99.4376 17.1304C99.0351 17.9961 98.5381 18.814 97.9559 19.569C97.3541 20.2856 96.5669 20.8201 95.6817 21.1133C96.8646 21.4785 97.8802 22.2553 98.547 23.305C98.8463 23.7747 99.0955 24.2749 99.2905 24.7973C99.4867 25.3311 99.6674 25.8624 99.8326 26.391L102.899 35.6542H95.8237L93.3507 27.6363C92.9548 26.4092 92.4386 25.5374 91.8018 25.0209C91.1651 24.5044 90.2186 24.2444 88.9623 24.2409H86.9849V35.6542H80.7018Z" fill="#4D342E"/>
<path d="M123.882 26.8898C123.915 28.2738 123.601 29.6438 122.968 30.8727C122.377 31.9794 121.549 32.9402 120.544 33.6858C119.509 34.4471 118.345 35.0127 117.108 35.3549C115.821 35.7192 114.491 35.9029 113.154 35.9008C111.801 35.9051 110.453 35.7214 109.15 35.3549C107.914 35.0127 106.75 34.4471 105.714 33.6858C104.711 32.9448 103.889 31.9826 103.311 30.8727C102.693 29.6392 102.387 28.271 102.42 26.8898V19.7688C102.387 18.3848 102.701 17.0148 103.334 15.7859C103.925 14.6792 104.753 13.7184 105.758 12.9728C106.802 12.2045 107.974 11.6312 109.22 11.2803C110.512 10.8991 111.851 10.7056 113.198 10.7058C114.594 10.6983 115.985 10.8918 117.328 11.2803C118.564 11.6275 119.722 12.2099 120.74 12.9962C121.712 13.7617 122.499 14.7396 123.04 15.8561C123.623 17.1094 123.91 18.4814 123.879 19.865L123.882 26.8898ZM117.604 20.8296C117.627 20.1414 117.491 19.4573 117.209 18.8303C116.967 18.3313 116.625 17.8886 116.203 17.5305C115.782 17.1724 115.291 16.9067 114.762 16.7504C114.259 16.6016 113.737 16.5255 113.213 16.5242C112.67 16.5264 112.13 16.6025 111.607 16.7504C111.067 16.895 110.564 17.1557 110.133 17.5148C109.702 17.8738 109.353 18.3226 109.111 18.8303C108.828 19.4569 108.692 20.1413 108.716 20.8296V25.7276C108.695 26.4215 108.821 27.1119 109.085 27.7529C109.314 28.2763 109.662 28.7385 110.1 29.1023C110.522 29.4473 111.009 29.702 111.533 29.851C112.08 30.0035 112.645 30.0788 113.213 30.0746C113.737 30.0743 114.259 29.999 114.762 29.851C115.275 29.6978 115.754 29.4432 116.169 29.1023C116.607 28.734 116.959 28.2734 117.201 27.7529C117.482 27.1163 117.617 26.424 117.596 25.7276L117.604 20.8296Z" fill="#4D342E"/>
<path d="M125.815 35.6542V0H132.095V18.3263H134.122C134.953 18.362 135.774 18.1347 136.471 17.6763C137.08 17.2482 137.631 16.535 138.125 15.5367L140.4 10.9557H147.519L144.553 17.1304C144.148 17.9938 143.648 18.809 143.064 19.5612C142.462 20.2778 141.675 20.8123 140.789 21.1055C141.417 21.3037 142.003 21.6156 142.519 22.0258C142.961 22.3877 143.344 22.8166 143.655 23.2972C143.954 23.7669 144.203 24.2671 144.398 24.7895C144.594 25.3233 144.775 25.8545 144.94 26.3832L148.007 35.6464H140.944L138.471 27.6285C138.075 26.4014 137.559 25.5296 136.922 25.0131C136.286 24.4966 135.339 24.2366 134.083 24.2331H132.105V35.6542H125.815Z" fill="#4D342E"/>
<path d="M155.713 11.0545V26.2428C155.713 27.6294 156.061 28.6 156.758 29.1546C157.388 29.679 158.177 29.9691 158.994 29.9762C159.847 29.9582 160.69 29.782 161.48 29.4562C162.614 28.9786 163.696 28.3863 164.712 27.6883V11.0493H170.989V35.6542H165.21L164.719 33.5119C162.938 34.6073 161.455 35.3006 160.269 35.5918C159.285 35.8415 158.276 35.9793 157.262 36.0026C156.038 36.0348 154.823 35.7961 153.702 35.3032C152.747 34.8682 151.915 34.2008 151.28 33.3612C150.63 32.4848 150.159 31.4871 149.894 30.4259C149.587 29.2052 149.437 27.9494 149.45 26.69V11.0545H155.713Z" fill="#4D342E"/>
</g>
<defs>
<clipPath id="clip0_210_503">
<rect width="171" height="36" fill="white"/>
</clipPath>
</defs>
</svg>
