<svg width="485" height="485" viewBox="0 0 485 485" fill="none" xmlns="http://www.w3.org/2000/svg">
<g clip-path="url(#clip0_210_329)">
<path d="M242.5 472.981C189.177 472.98 137.504 454.49 96.2855 420.661C55.067 386.833 26.8531 339.759 16.4513 287.46C6.04944 235.162 14.1032 180.875 39.2403 133.848C64.3773 86.8221 105.042 49.9667 154.307 29.5617C203.571 9.15672 258.387 6.46471 309.413 21.9444C360.44 37.424 404.521 70.1176 434.144 114.454C463.768 158.791 477.103 212.028 471.875 265.094C466.648 318.16 443.183 367.772 405.477 405.477C384.124 426.945 358.725 443.965 330.75 455.552C302.775 467.139 272.78 473.063 242.5 472.981Z" fill="#FEA726"/>
<path d="M242.5 18.7354C297.777 18.8148 351.053 39.4217 391.996 76.5589C432.94 113.696 458.63 164.716 464.085 219.723C469.54 274.73 454.371 329.802 421.519 374.257C388.667 418.713 340.475 449.382 286.291 460.317C232.107 471.251 175.793 461.671 128.272 433.435C80.7508 405.199 45.4108 360.32 29.1066 307.503C12.8024 254.685 16.6963 197.695 40.0329 147.586C63.3695 97.4769 104.485 57.8214 155.405 36.3114C182.959 24.6556 212.582 18.6778 242.5 18.7354ZM242.5 5.30249C111.501 5.30249 5.30249 111.501 5.30249 242.5C5.30249 373.5 111.501 479.698 242.5 479.698C373.5 479.698 479.698 373.5 479.698 242.5C479.698 111.501 373.5 5.30249 242.5 5.30249Z" fill="white"/>
<path d="M242.5 485C186.397 484.999 132.029 465.545 88.6607 429.953C45.2925 394.361 15.6071 344.832 4.66255 289.806C-6.28202 234.781 2.19142 177.662 28.6391 128.184C55.0868 78.705 97.8723 39.9274 149.706 18.4581C201.539 -3.01125 259.213 -5.84393 312.9 10.4427C366.588 26.7293 412.967 61.1276 444.136 107.776C475.305 154.425 489.335 210.438 483.836 266.272C478.336 322.105 453.647 374.304 413.975 413.975C391.509 436.563 364.785 454.471 335.352 466.662C305.918 478.854 274.359 485.086 242.5 485ZM242.5 10.6049C188.85 10.6046 136.86 29.2067 95.3872 63.2418C53.9149 97.2768 25.5267 144.639 15.0598 197.258C4.59287 249.877 12.6947 304.498 37.985 351.813C63.2752 399.129 104.189 436.211 153.755 456.743C203.321 477.274 258.473 479.984 309.813 464.41C361.153 448.836 405.505 415.943 435.312 371.335C465.118 326.727 478.536 273.163 473.277 219.771C468.019 166.379 444.41 116.463 406.474 78.5261C384.991 56.9253 359.436 39.8 331.29 28.1413C303.144 16.4826 272.965 10.5222 242.5 10.6049Z" fill="#4D342E"/>
<path d="M332.734 328.528C325.199 328.527 317.846 326.215 311.666 321.904C305.487 317.593 300.778 311.491 298.176 304.419C296.362 290.701 289.641 278.104 279.258 268.957C268.874 259.81 255.53 254.732 241.693 254.662C227.855 254.593 214.46 259.535 203.985 268.577C193.51 277.619 186.663 290.148 184.71 303.847C182.295 310.534 177.996 316.379 172.331 320.676C166.667 324.973 159.879 327.538 152.789 328.061C145.698 328.585 138.608 327.044 132.374 323.625C126.14 320.206 121.029 315.056 117.659 308.796C134.966 351.541 184.738 376.194 242.641 376.194C302.779 376.194 352.671 349.597 367.518 303.79C365.009 311.016 360.311 317.282 354.077 321.715C347.844 326.148 340.384 328.53 332.734 328.528Z" fill="white"/>
<path d="M287.536 296.655C287.528 302.437 285.556 308.044 281.942 312.557C278.328 317.07 273.288 320.221 267.648 321.492C267.086 328.261 263.982 334.566 258.959 339.138C253.936 343.71 247.368 346.21 240.577 346.135C233.785 346.059 227.274 343.415 222.354 338.732C217.433 334.05 214.469 327.678 214.058 320.898C208.914 319.259 204.425 316.027 201.239 311.67C198.053 307.312 196.335 302.054 196.333 296.655C196.333 295.249 196.892 293.9 197.886 292.906C198.881 291.912 200.229 291.353 201.636 291.353C203.042 291.353 204.391 291.912 205.385 292.906C206.38 293.9 206.938 295.249 206.938 296.655C206.938 300.593 208.502 304.369 211.287 307.154C214.071 309.938 217.848 311.502 221.785 311.502C225.723 311.502 229.499 309.938 232.284 307.154C235.068 304.369 236.632 300.593 236.632 296.655H233.896C231.434 296.655 229.073 295.677 227.332 293.937C225.591 292.196 224.613 289.835 224.613 287.373V286.757C224.613 282.257 226.401 277.941 229.583 274.759C232.765 271.577 237.081 269.79 241.581 269.79C246.081 269.79 250.397 271.577 253.579 274.759C256.761 277.941 258.549 282.257 258.549 286.757V287.373C258.549 289.835 257.571 292.196 255.83 293.937C254.089 295.677 251.728 296.655 249.266 296.655H247.237C247.237 300.593 248.801 304.369 251.586 307.154C254.37 309.938 258.146 311.502 262.084 311.502C266.022 311.502 269.798 309.938 272.582 307.154C275.367 304.369 276.931 300.593 276.931 296.655C276.931 295.249 277.49 293.9 278.484 292.906C279.478 291.912 280.827 291.353 282.233 291.353C283.64 291.353 284.988 291.912 285.983 292.906C286.977 293.9 287.536 295.249 287.536 296.655Z" fill="#4D342E"/>
<path d="M372.022 161.195L374.227 126.297L367.504 110.871L355.188 109.047L332.345 117.142L293.976 153.489L293.22 153.566C277.265 145.602 259.678 141.456 241.846 141.456C224.014 141.456 206.426 145.602 190.472 153.566L184.109 143.725L163.479 124.014L136.874 108.771L117.503 110.857L110.15 133.481L114.936 172.083L131.501 207.538C118.613 228.268 111.14 251.683 111.14 274.385C111.117 281.553 111.914 288.7 113.515 295.687C114.545 300.169 115.931 304.561 117.658 308.823C121.029 315.083 126.14 320.234 132.374 323.652C138.608 327.071 145.698 328.612 152.789 328.088C159.879 327.565 166.667 325 172.331 320.703C177.996 316.406 182.295 310.561 184.71 303.874C186.663 290.175 193.51 277.646 203.985 268.604C214.46 259.563 227.855 254.62 241.692 254.69C255.53 254.759 268.874 259.837 279.258 268.984C289.641 278.131 296.361 290.728 298.176 304.447C300.796 311.573 305.555 317.715 311.801 322.032C318.048 326.348 325.476 328.629 333.069 328.56C340.661 328.491 348.047 326.076 354.214 321.647C360.381 317.218 365.028 310.99 367.518 303.817C367.546 303.756 367.567 303.692 367.582 303.626C367.815 302.919 368.041 302.149 368.289 301.399C370.825 292.63 372.092 283.542 372.05 274.413C372.05 251.082 364.238 226.981 350.798 205.835L363.524 192.161L372.022 161.195Z" fill="#B2732F"/>
<path d="M188.556 161.195C188.556 161.195 247.944 139.886 298.848 161.718L286.829 148.2C286.829 148.2 259.256 142.742 255.361 142.29C251.465 141.837 221.785 142.29 221.785 142.29L193.505 148.363L188.556 161.195Z" fill="#C9843F"/>
<path d="M129.946 325.642C129.946 325.642 232.885 411.189 355.655 325.642L332.324 353.385L242.641 376.193L177.661 366.768L143.174 343.826L129.946 325.642Z" fill="#E0E0E0"/>
<path d="M242.641 381.496C205.482 381.496 171.426 371.527 146.737 353.428C119.977 333.816 105.837 306.483 105.837 274.385C105.837 252.808 112.158 230.446 124.142 209.526C114.852 193.618 108.015 171.998 105.682 150.979C104.466 140.021 102.91 113.742 114.682 106.361C122.954 101.178 137.497 103.137 153.567 111.599C169.268 119.987 182.74 132.002 192.862 146.645C208.44 139.668 225.328 136.096 242.397 136.168C259.466 136.24 276.323 139.954 291.841 147.062C301.98 132.25 315.536 120.096 331.362 111.628C347.468 103.144 362.025 101.171 370.311 106.361C382.082 113.742 380.527 140.021 379.311 150.979C376.907 172.642 369.717 194.933 359.996 210.961C371.308 231.464 377.317 253.303 377.317 274.385C377.317 306.554 363.552 333.879 337.52 353.399C313.355 371.513 279.66 381.496 242.641 381.496ZM133.361 204.322L139.328 204.824L134.93 212.099C122.834 232.206 116.442 253.748 116.442 274.4C116.442 302.976 129.084 327.354 153.008 344.894C175.894 361.664 207.723 370.905 242.641 370.905C277.376 370.905 308.816 361.678 331.165 344.923C354.425 327.488 366.719 303.104 366.719 274.4C366.719 253.989 360.54 232.687 348.847 212.82L346.132 208.196L350.967 205.425C359.911 190.67 366.521 170.004 368.777 149.82C371.188 128.101 367.547 117.156 364.683 115.361C360.809 112.929 350.275 113.664 336.319 121.017C321.492 129.029 308.866 140.567 299.555 154.613L301.11 163.387L291.707 158.728C276.474 150.973 259.641 146.882 242.547 146.782C225.454 146.681 208.574 150.573 193.251 158.148L189.009 160.198L186.492 156.19C177.35 141.668 163.564 128.836 148.66 120.988C134.725 113.657 124.219 112.929 120.345 115.332C117.482 117.128 113.841 128.058 116.252 149.791C118.401 169.488 124.764 189.617 133.361 204.322Z" fill="#4D342E"/>
<path d="M177.386 235.854H184.809C187.53 235.854 190.223 236.39 192.737 237.431C195.25 238.472 197.533 239.997 199.457 241.921C201.381 243.845 202.906 246.128 203.947 248.641C204.988 251.155 205.524 253.848 205.524 256.569C205.524 258.388 204.802 260.132 203.516 261.418C202.23 262.704 200.485 263.427 198.666 263.427H168.548C166.73 263.427 164.985 262.704 163.699 261.418C162.413 260.132 161.69 258.388 161.69 256.569V251.549C161.69 247.386 163.344 243.394 166.288 240.451C169.231 237.507 173.223 235.854 177.386 235.854Z" fill="#4D342E"/>
<path d="M188.556 253.529C191.29 253.529 193.505 251.313 193.505 248.58C193.505 245.846 191.29 243.631 188.556 243.631C185.823 243.631 183.607 245.846 183.607 248.58C183.607 251.313 185.823 253.529 188.556 253.529Z" fill="white"/>
<path d="M212.914 236.045L203.915 227.047C202.121 225.252 199.211 225.252 197.416 227.047C195.622 228.841 195.622 231.751 197.416 233.546L206.415 242.544C208.21 244.339 211.119 244.339 212.914 242.544C214.709 240.75 214.709 237.84 212.914 236.045Z" fill="#704620"/>
<path d="M313.9 263.42H283.782C281.963 263.42 280.219 262.698 278.932 261.412C277.646 260.125 276.924 258.381 276.924 256.562C276.924 251.068 279.106 245.799 282.991 241.915C286.876 238.03 292.145 235.847 297.639 235.847H305.062C309.225 235.847 313.217 237.501 316.161 240.444C319.104 243.388 320.758 247.38 320.758 251.543V256.562C320.758 258.381 320.035 260.125 318.749 261.412C317.463 262.698 315.719 263.42 313.9 263.42Z" fill="#4D342E"/>
<path d="M293.899 253.529C296.632 253.529 298.848 251.313 298.848 248.58C298.848 245.846 296.632 243.631 293.899 243.631C291.166 243.631 288.95 245.846 288.95 248.58C288.95 251.313 291.166 253.529 293.899 253.529Z" fill="white"/>
<path d="M276.029 242.54L285.028 233.542C286.823 231.747 286.823 228.837 285.028 227.043C283.233 225.248 280.324 225.248 278.529 227.043L269.53 236.041C267.736 237.836 267.736 240.746 269.53 242.54C271.325 244.335 274.235 244.335 276.029 242.54Z" fill="#704620"/>
<path d="M252.688 330.443C251.168 332.05 249.337 333.33 247.305 334.205C245.274 335.08 243.085 335.531 240.874 335.531C238.662 335.531 236.474 335.08 234.442 334.205C232.411 333.33 230.58 332.05 229.06 330.443C232.226 327.372 236.463 325.655 240.874 325.655C245.284 325.655 249.522 327.372 252.688 330.443Z" fill="#E5767E"/>
<path d="M177.661 160.729C162.734 170.239 149.654 182.373 139.052 196.545L139.017 196.475C140.93 193.92 142.926 191.424 145.005 188.988C122.572 130.264 140.855 127.938 141.307 127.889C140.328 127.508 139.327 127.185 138.31 126.92C148.922 129.557 163.861 141.138 177.661 160.729Z" fill="#825222"/>
<path d="M344.053 196.079C342.059 193.435 339.978 190.842 337.81 188.302C360.243 130.18 341.96 127.882 341.508 127.832C346.838 125.803 351.328 125.711 354.417 127.656C363.354 133.283 359.784 166.145 344.053 196.079Z" fill="#704620"/>
<path d="M145.005 188.959C142.927 191.391 140.931 193.887 139.017 196.446C138.939 196.291 138.854 196.142 138.784 195.986C123.088 166.045 119.532 133.276 128.462 127.684C130.242 126.629 132.3 126.136 134.365 126.27H134.874C135.049 126.273 135.224 126.288 135.397 126.312L135.92 126.376C136.117 126.394 136.313 126.422 136.507 126.46C136.783 126.503 137.073 126.559 137.356 126.616C137.638 126.672 137.992 126.757 138.31 126.842C139.327 127.107 140.328 127.43 141.308 127.811C140.855 127.91 122.572 130.236 145.005 188.959Z" fill="#704620"/>
<path d="M341.48 127.86C331.235 131.756 317.901 142.813 305.423 160.382C317.538 168.033 328.438 177.456 337.761 188.337C360.243 130.207 341.96 127.909 341.48 127.86Z" fill="#825222"/>
<path d="M138.784 195.986C138.854 196.142 138.939 196.29 139.017 196.446L138.777 195.993L138.784 195.986Z" fill="#4D342E"/>
</g>
<defs>
<clipPath id="clip0_210_329">
<rect width="485" height="485" fill="white"/>
</clipPath>
</defs>
</svg>
