<svg width="171" height="37" viewBox="0 0 171 37" fill="none" xmlns="http://www.w3.org/2000/svg">
<g clip-path="url(#clip0_210_480)">
<path d="M5.63521 36.0022C3.65785 36.0022 2.22431 35.6399 1.33459 34.9154C0.444866 34.1909 0 33.1196 0 31.7016C9.82974e-05 31.07 0.0658498 30.4402 0.196189 29.8223L5.83398 0.394287H9.93583L4.49681 29.2776C4.40718 29.6148 4.35779 29.9614 4.34967 30.3102C4.34967 31.0665 4.58974 31.5467 5.0673 31.7429C5.54486 31.939 6.40963 32.0733 7.66161 32.1378L7.06789 35.9944L5.63521 36.0022Z" fill="#FEA726"/>
<path d="M17.122 11.2343L13.8101 28.4393C13.743 28.8033 13.6939 29.1156 13.6603 29.379C13.6284 29.6246 13.612 29.8721 13.6113 30.1198C13.6113 30.9424 13.7765 31.4535 14.1069 31.6532C14.7014 31.9384 15.3332 32.1383 15.9836 32.2469L15.1937 36.0028H14.649C12.7715 36.0028 11.3792 35.6483 10.4723 34.9393C9.56538 34.2303 9.11191 33.0523 9.11191 31.4053C9.11835 31.0579 9.15987 30.7119 9.23582 30.3728C9.31842 29.9778 9.39328 29.5984 9.45782 29.2344L12.9195 11.2394L17.122 11.2343ZM18.898 3.86693C18.7295 4.56471 18.3402 5.18942 17.788 5.6481C17.2653 6.12024 16.5873 6.38389 15.8829 6.38896C15.3455 6.38896 14.8301 6.17546 14.4501 5.79544C14.07 5.41542 13.8565 4.89999 13.8565 4.36256C13.8578 3.97386 13.9397 3.58966 14.097 3.2342C14.2542 2.87875 14.4835 2.55978 14.7703 2.29743C15.0369 2.01762 15.3572 1.79451 15.7121 1.64148C16.0669 1.48845 16.449 1.40865 16.8355 1.40685C17.1161 1.39603 17.396 1.44086 17.6592 1.53878C17.9224 1.63669 18.1636 1.78575 18.3688 1.97734C18.5646 2.16519 18.7186 2.39213 18.8209 2.64341C18.9232 2.89468 18.9715 3.16468 18.9625 3.43584C18.9627 3.58195 18.9409 3.72726 18.898 3.86693V3.86693Z" fill="#FEA726"/>
<path d="M23.3124 36.0029C21.3351 36.0029 19.9015 35.6407 19.0118 34.9162C18.1221 34.1916 17.6772 33.1204 17.6772 31.7023C17.6769 31.0706 17.7435 30.4407 17.876 29.823L23.5112 0.39502H27.613L22.1766 29.2784C22.085 29.6152 22.0347 29.9619 22.0269 30.3109C22.0269 31.0673 22.267 31.5474 22.7445 31.7436C23.2221 31.9398 24.0869 32.074 25.3388 32.1386L24.7477 35.9952L23.3124 36.0029Z" fill="#FEA726"/>
<path d="M37.4459 36.0533C36.5579 36.0533 35.6604 36.0129 34.7535 35.932C33.834 35.8478 32.9236 35.6837 32.0327 35.4415C31.0933 35.1834 30.1825 34.8305 29.3144 34.3883C28.3288 33.8796 27.4076 33.2548 26.5704 32.5271L29.9804 28.0458C31.0487 28.9846 32.2929 29.7015 33.6409 30.1548C34.8405 30.5311 36.0905 30.7226 37.3478 30.7227C38.3092 30.7599 39.2637 30.5464 40.1176 30.1032C40.8404 29.6901 41.2044 29.1196 41.2044 28.3917C41.2132 28.1168 41.1572 27.8437 41.0411 27.5944C40.925 27.3451 40.7519 27.1266 40.5358 26.9564C40.0918 26.5916 39.3096 26.3102 38.1893 26.1123C37.069 25.9144 35.9065 25.6915 34.7018 25.4437C33.5624 25.2174 32.4576 24.8425 31.4157 24.3286C30.4554 23.8572 29.6237 23.1601 28.9918 22.297C28.3671 21.4365 28.0538 20.2964 28.0521 18.8766C28.0271 17.6965 28.2996 16.5291 28.8446 15.4821C29.3474 14.5313 30.0523 13.7022 30.9097 13.053C31.7956 12.3941 32.7922 11.8993 33.8525 11.5919C34.9671 11.2576 36.1248 11.0897 37.2884 11.0937C39.0649 11.0747 40.8384 11.2478 42.5777 11.61C44.294 12.0199 45.8984 12.8045 47.2759 13.9074L44.3098 18.6056C43.2179 17.8214 41.9832 17.2585 40.6752 16.9483C39.5949 16.7104 38.4927 16.5859 37.3865 16.5766C36.2997 16.5766 35.4995 16.7934 34.9884 17.2194C34.7545 17.3912 34.5631 17.6143 34.4288 17.8716C34.2946 18.1289 34.2211 18.4136 34.2139 18.7037C34.2139 19.3301 34.5444 19.775 35.2052 20.0383C36.0143 20.345 36.8499 20.5766 37.7014 20.7301L40.9566 21.378C42.082 21.5962 43.172 21.968 44.1962 22.4829C45.186 22.9816 46.0419 23.7101 46.6925 24.6074C47.3499 25.516 47.6794 26.7439 47.6811 28.291C47.7082 29.4618 47.4269 30.6191 46.8654 31.6469C46.314 32.6102 45.5536 33.4376 44.6402 34.0682C43.649 34.7521 42.5442 35.2546 41.3773 35.5525C40.0942 35.8895 38.7725 36.0578 37.4459 36.0533V36.0533Z" fill="#4D342E"/>
<path d="M64.3312 35.8076V20.7271C64.3312 19.3503 64.0017 18.3866 63.3426 17.8359C62.7227 17.3059 61.933 17.0164 61.1174 17.0202C60.2535 17.0403 59.4002 17.2151 58.5979 17.5364C57.476 17.9835 56.3997 18.5376 55.3841 19.1911V35.8076H49.1139V0.40625H55.3944V13.5714C57.1722 12.4511 58.6711 11.7507 59.8912 11.4701C60.9113 11.2165 61.9561 11.0754 63.007 11.0494C65.7777 11.0494 67.7568 11.8651 68.9442 13.4965C70.1317 15.128 70.7254 17.2792 70.7254 19.9501V35.8076H64.3312Z" fill="#4D342E"/>
<path d="M72.0289 4.75785C72.0199 4.28927 72.1069 3.82381 72.2844 3.39009C72.462 2.95637 72.7264 2.56356 73.0615 2.23582C73.3837 1.90715 73.7683 1.64605 74.1927 1.46781C74.6171 1.28956 75.0728 1.19775 75.5331 1.19775C75.9935 1.19775 76.4492 1.28956 76.8736 1.46781C77.298 1.64605 77.6826 1.90715 78.0048 2.23582C78.3399 2.56356 78.6043 2.95637 78.7819 3.39009C78.9595 3.82381 79.0464 4.28927 79.0374 4.75785C79.0476 5.22277 78.9611 5.68473 78.7834 6.11445C78.6056 6.54416 78.3405 6.93225 78.0048 7.25407C77.3464 7.90404 76.4584 8.26848 75.5331 8.26848C74.6079 8.26848 73.7199 7.90404 73.0615 7.25407C72.7258 6.93225 72.4607 6.54416 72.2829 6.11445C72.1052 5.68473 72.0187 5.22277 72.0289 4.75785V4.75785ZM72.4238 35.807V11.3817H78.7018V35.807H72.4238Z" fill="#4D342E"/>
<path d="M80.7021 35.8076V0.40625H86.9827V18.6026H89.009C89.8403 18.6381 90.6617 18.4124 91.3581 17.9572C91.9673 17.5321 92.5189 16.824 93.0128 15.8327L95.287 11.2843H102.407L99.4379 17.4151C99.0354 18.2747 98.5384 19.0869 97.9562 19.8365C97.3544 20.548 96.5672 21.0787 95.682 21.3698C96.8649 21.7325 97.8805 22.5038 98.5473 23.546C98.8466 24.0123 99.0958 24.509 99.2908 25.0277C99.487 25.5577 99.6677 26.0852 99.8329 26.6101L102.9 35.8076H95.824L93.351 27.8466C92.9552 26.6282 92.4389 25.7625 91.8021 25.2497C91.1654 24.7368 90.2189 24.4787 88.9626 24.4753H86.9852V35.8076H80.7021Z" fill="#4D342E"/>
<path d="M123.882 27.1055C123.915 28.4796 123.601 29.84 122.968 31.0602C122.376 32.159 121.548 33.113 120.544 33.8533C119.508 34.6092 118.344 35.1707 117.108 35.5105C115.821 35.8722 114.49 36.0547 113.153 36.0526C111.8 36.0569 110.453 35.8745 109.149 35.5105C107.913 35.1707 106.749 34.6092 105.714 33.8533C104.71 33.1175 103.888 32.1622 103.31 31.0602C102.692 29.8353 102.387 28.4769 102.42 27.1055V20.035C102.386 18.6608 102.701 17.3005 103.334 16.0803C103.925 14.9814 104.753 14.0275 105.757 13.2872C106.801 12.5243 107.974 11.9551 109.219 11.6067C110.511 11.2281 111.851 11.036 113.197 11.0362C114.594 11.0288 115.985 11.2209 117.327 11.6067C118.563 11.9514 119.722 12.5297 120.74 13.3104C121.712 14.0705 122.498 15.0415 123.04 16.15C123.623 17.3944 123.91 18.7567 123.879 20.1305L123.882 27.1055ZM117.604 21.0882C117.626 20.405 117.491 19.7257 117.209 19.1031C116.967 18.6077 116.624 18.1681 116.203 17.8125C115.781 17.4569 115.29 17.1931 114.761 17.038C114.258 16.8902 113.737 16.8146 113.213 16.8134C112.67 16.8156 112.13 16.8911 111.607 17.038C111.066 17.1815 110.563 17.4404 110.132 17.7969C109.702 18.1534 109.353 18.599 109.111 19.1031C108.827 19.7253 108.692 20.4049 108.716 21.0882V25.9516C108.695 26.6405 108.821 27.326 109.085 27.9625C109.314 28.4822 109.661 28.941 110.099 29.3022C110.522 29.6448 111.009 29.8978 111.532 30.0457C112.079 30.1971 112.645 30.2718 113.213 30.2677C113.737 30.2674 114.258 30.1926 114.761 30.0457C115.275 29.8935 115.753 29.6408 116.168 29.3022C116.606 28.9366 116.959 28.4792 117.201 27.9625C117.482 27.3303 117.617 26.643 117.596 25.9516L117.604 21.0882Z" fill="#4D342E"/>
<path d="M125.815 35.8076V0.40625H132.096V18.6026H134.122C134.953 18.6381 135.775 18.4124 136.471 17.9572C137.08 17.5321 137.632 16.824 138.126 15.8327L140.4 11.2843H147.519L144.553 17.4151C144.148 18.2724 143.648 19.0819 143.064 19.8287C142.462 20.5402 141.675 21.071 140.79 21.3621C141.417 21.5589 142.003 21.8686 142.519 22.2759C142.961 22.6352 143.344 23.0611 143.655 23.5382C143.954 24.0046 144.203 24.5013 144.398 25.0199C144.595 25.55 144.775 26.0775 144.941 26.6023L148.007 35.7999H140.945L138.472 27.8388C138.076 26.6204 137.559 25.7548 136.923 25.2419C136.286 24.7291 135.339 24.471 134.083 24.4675H132.106V35.8076H125.815Z" fill="#4D342E"/>
<path d="M155.713 11.3825V26.463C155.713 27.8398 156.061 28.8035 156.758 29.3542C157.388 29.8749 158.177 30.1629 158.994 30.1699C159.847 30.1521 160.69 29.9771 161.48 29.6537C162.614 29.1795 163.697 28.5913 164.712 27.8983V11.3773H170.99V35.8077H165.21L164.719 33.6806C162.938 34.7683 161.455 35.4567 160.269 35.7458C159.285 35.9937 158.276 36.1305 157.262 36.1536C156.039 36.1857 154.823 35.9486 153.702 35.4592C152.747 35.0273 151.915 34.3647 151.281 33.5309C150.63 32.6608 150.159 31.6702 149.894 30.6165C149.587 29.4044 149.437 28.1575 149.45 26.907V11.3825H155.713Z" fill="#4D342E"/>
</g>
<defs>
<clipPath id="clip0_210_480">
<rect width="171" height="35.7447" fill="white" transform="translate(0 0.40625)"/>
</clipPath>
</defs>
</svg>
